<?xml version="1.0" encoding="UTF-8"?>
<svg width="539px" height="150px" viewBox="0 0 539 150" version="1.1" xmlns="http://www.w3.org/2000/svg" xmlns:xlink="http://www.w3.org/1999/xlink">
    <!-- Generator: Sketch 43.2 (39069) - http://www.bohemiancoding.com/sketch -->
    <title>Logo_SciRef_white</title>
    <defs></defs>
    <g id="Page-1" stroke="none" stroke-width="1" fill="none" fill-rule="evenodd">
        <g id="Logo_SciRef_white" transform="translate(2.000000, 2.000000)" fill-rule="nonzero">
            <polygon id="Shape" stroke="#48A146" stroke-width="4" fill="#6FB54E" points="99.8 0 69.2 0 53.9 26.5 69.2 53 99.8 53 115.1 26.5"></polygon>
            <polygon id="Shape" stroke="#6B499C" stroke-width="4" fill="#876BAF" points="152.8 31 122.2 31 106.9 57.5 122.2 84 152.8 84 168.1 57.5"></polygon>
            <polygon id="Shape" stroke="#F15E22" stroke-width="4" fill="#F47E49" points="99.8 62 69.2 62 53.9 88.5 69.2 115 99.8 115 115.1 88.5"></polygon>
            <polygon id="Shape" stroke="#2E7BBF" stroke-width="4" fill="#2B9DD8" points="46.3 31 15.7 31 0.4 57.5 15.7 84 46.3 84 61.6 57.5"></polygon>
            <polygon id="Shape" stroke="#D64554" stroke-width="4" fill="#DC5F6C" points="46.3 92.5 15.7 92.5 0.4 119 15.7 145.5 46.3 145.5 61.6 119"></polygon>
            <g id="Group" transform="translate(195.000000, 101.000000)" fill="#FFFFFF">
                <path d="M0.5,18.9 C0.5,16.3 0.5,14 0.3,11.9 L3.9,11.9 L4,16.4 L4.1,16.4 C5.2,13.3 7.6,11.4 10.4,11.4 C10.9,11.4 11.2,11.4 11.6,11.5 L11.6,15.4 C11.2,15.3 10.8,15.3 10.2,15.3 C7.3,15.3 5.3,17.5 4.7,20.5 C4.6,21.1 4.5,21.8 4.5,22.4 L4.5,34.4 L0.4,34.4 L0.4,18.9 L0.5,18.9 Z" id="Shape"></path>
                <path d="M25.8,11.4 C33.1,11.4 35,17.9 35,22 C35,22.9 35,23.4 34.8,23.9 L19.1,23.9 C19.2,29.4 22.7,31.7 26.8,31.7 C29.8,31.7 31.5,31.2 33.1,30.5 L33.8,33.4 C32.4,34.1 29.9,34.8 26.3,34.8 C19.4,34.8 15.2,30.2 15.2,23.5 C15.2,16.7 19.2,11.4 25.8,11.4 Z M31.1,20.9 C31.1,18.3 30,14.3 25.4,14.3 C21.3,14.3 19.5,18.1 19.1,20.9 L31.1,20.9 Z" id="Shape"></path>
                <path d="M42.2,15 L39,15 L39,11.9 L42.2,11.9 L42.2,10.8 C42.2,7.6 42.9,4.8 44.8,3 C46.3,1.5 48.4,0.9 50.2,0.9 C51.7,0.9 53,1.2 53.8,1.6 L53.1,4.7 C52.4,4.4 51.7,4.2 50.6,4.2 C47.2,4.2 46.3,7.2 46.3,10.7 L46.3,11.9 L51.7,11.9 L51.7,15 L46.3,15 L46.3,34.4 L42.3,34.4 L42.3,15 L42.2,15 Z" id="Shape"></path>
                <path d="M65.3,11.4 C72.6,11.4 74.5,17.9 74.5,22 C74.5,22.9 74.5,23.4 74.3,23.9 L58.6,23.9 C58.7,29.4 62.2,31.7 66.3,31.7 C69.3,31.7 71,31.2 72.6,30.5 L73.3,33.4 C71.9,34.1 69.4,34.8 65.8,34.8 C58.9,34.8 54.7,30.2 54.7,23.5 C54.7,16.7 58.7,11.4 65.3,11.4 Z M70.6,20.9 C70.6,18.3 69.5,14.3 64.9,14.3 C60.8,14.3 59,18.1 58.6,20.9 L70.6,20.9 Z" id="Shape"></path>
                <path d="M81.2,18.9 C81.2,16.3 81.2,14 81,11.9 L84.6,11.9 L84.7,16.4 L84.8,16.4 C85.9,13.3 88.3,11.4 91.1,11.4 C91.6,11.4 91.9,11.4 92.3,11.5 L92.3,15.4 C91.9,15.3 91.5,15.3 90.9,15.3 C88,15.3 86,17.5 85.4,20.5 C85.3,21.1 85.2,21.8 85.2,22.4 L85.2,34.4 L81.1,34.4 L81.1,18.9 L81.2,18.9 Z" id="Shape"></path>
                <path d="M106.5,11.4 C113.8,11.4 115.7,17.9 115.7,22 C115.7,22.9 115.7,23.4 115.5,23.9 L99.8,23.9 C99.9,29.4 103.4,31.7 107.5,31.7 C110.5,31.7 112.2,31.2 113.8,30.5 L114.5,33.4 C113.1,34.1 110.6,34.8 107,34.8 C100.1,34.8 95.9,30.2 95.9,23.5 C95.9,16.7 99.9,11.4 106.5,11.4 Z M111.8,20.9 C111.8,18.3 110.7,14.3 106.1,14.3 C102,14.3 100.2,18.1 99.8,20.9 L111.8,20.9 Z" id="Shape"></path>
                <path d="M122.4,18 C122.4,15.7 122.3,13.8 122.2,11.9 L125.8,11.9 L126,15.6 L126.1,15.6 C127.2,13.5 129.8,11.4 133.5,11.4 C136.6,11.4 141.4,13.3 141.4,21 L141.4,34.4 L137.4,34.4 L137.4,21.5 C137.4,17.8 136,14.8 132.2,14.8 C129.5,14.8 127.5,16.7 126.7,19 C126.5,19.5 126.4,20.2 126.4,20.9 L126.4,34.4 L122.4,34.4 L122.4,18 Z" id="Shape"></path>
                <path d="M160.2,11.4 C162.6,11.4 164.8,12 165.9,12.6 L165,15.8 C164,15.3 162.5,14.7 160.3,14.7 C155.1,14.7 152.4,18.6 152.4,23.2 C152.4,28.4 155.7,31.6 160.2,31.6 C162.5,31.6 164,31 165.2,30.5 L165.9,33.5 C164.8,34.1 162.5,34.8 159.4,34.8 C152.6,34.8 148.2,30.2 148.2,23.3 C148.2,16.5 152.9,11.4 160.2,11.4 Z" id="Shape"></path>
                <path d="M180.9,11.4 C188.2,11.4 190.1,17.9 190.1,22 C190.1,22.9 190.1,23.4 189.9,23.9 L174.2,23.9 C174.3,29.4 177.8,31.7 181.9,31.7 C184.9,31.7 186.6,31.2 188.2,30.5 L188.9,33.4 C187.5,34.1 185,34.8 181.4,34.8 C174.5,34.8 170.3,30.2 170.3,23.5 C170.3,16.7 174.3,11.4 180.9,11.4 Z M186.2,20.9 C186.2,18.3 185.1,14.3 180.5,14.3 C176.4,14.3 174.6,18.1 174.2,20.9 L186.2,20.9 Z" id="Shape"></path>
                <path d="M221.2,11.4 C223.6,11.4 225.8,12 226.9,12.6 L226,15.8 C225,15.3 223.5,14.7 221.3,14.7 C216.1,14.7 213.4,18.6 213.4,23.2 C213.4,28.4 216.7,31.6 221.2,31.6 C223.5,31.6 225,31 226.2,30.5 L226.9,33.5 C225.8,34.1 223.5,34.8 220.4,34.8 C213.6,34.8 209.2,30.2 209.2,23.3 C209.2,16.5 213.9,11.4 221.2,11.4 Z" id="Shape"></path>
                <path d="M241.9,11.4 C249.2,11.4 251.1,17.9 251.1,22 C251.1,22.9 251.1,23.4 250.9,23.9 L235.2,23.9 C235.3,29.4 238.8,31.7 242.9,31.7 C245.9,31.7 247.6,31.2 249.2,30.5 L249.9,33.4 C248.5,34.1 246,34.8 242.4,34.8 C235.5,34.8 231.3,30.2 231.3,23.5 C231.3,16.7 235.3,11.4 241.9,11.4 Z M247.2,20.9 C247.2,18.3 246.1,14.3 241.5,14.3 C237.4,14.3 235.6,18.1 235.2,20.9 L247.2,20.9 Z" id="Shape"></path>
                <path d="M257.9,18 C257.9,15.7 257.8,13.8 257.7,11.9 L261.3,11.9 L261.5,15.6 L261.6,15.6 C262.7,13.5 265.3,11.4 269,11.4 C272.1,11.4 276.9,13.3 276.9,21 L276.9,34.4 L272.9,34.4 L272.9,21.5 C272.9,17.8 271.5,14.8 267.7,14.8 C265,14.8 263,16.7 262.2,19 C262,19.5 261.9,20.2 261.9,20.9 L261.9,34.4 L257.9,34.4 L257.9,18 Z" id="Shape"></path>
                <path d="M285.9,27.3 L285.9,15 L282.4,15 L282.4,11.9 L285.9,11.9 L285.9,6.5 L289.9,5.4 L289.9,11.9 L295.8,11.9 L295.8,15 L290,15 L290,27.1 C290,29.9 290.8,31.5 293.1,31.5 C294.2,31.5 294.9,31.4 295.5,31.2 L295.7,34.3 C294.9,34.6 293.7,34.9 292.1,34.9 C290.2,34.9 288.6,34.3 287.6,33.2 C286.4,31.9 285.9,29.9 285.9,27.3 Z" id="Shape"></path>
                <path d="M310.7,11.4 C318,11.4 319.9,17.9 319.9,22 C319.9,22.9 319.9,23.4 319.7,23.9 L304,23.9 C304.1,29.4 307.6,31.7 311.7,31.7 C314.7,31.7 316.4,31.2 318,30.5 L318.7,33.4 C317.3,34.1 314.8,34.8 311.2,34.8 C304.3,34.8 300.1,30.2 300.1,23.5 C300.2,16.7 304.1,11.4 310.7,11.4 Z M316,20.9 C316,18.3 314.9,14.3 310.3,14.3 C306.2,14.3 304.4,18.1 304,20.9 L316,20.9 Z" id="Shape"></path>
                <path d="M326.6,18.9 C326.6,16.3 326.6,14 326.4,11.9 L330,11.9 L330.1,16.4 L330.2,16.4 C331.3,13.3 333.7,11.4 336.5,11.4 C337,11.4 337.3,11.4 337.7,11.5 L337.7,15.4 C337.3,15.3 336.9,15.3 336.3,15.3 C333.4,15.3 331.4,17.5 330.8,20.5 C330.7,21.1 330.6,21.8 330.6,22.4 L330.6,34.4 L326.5,34.4 L326.5,18.9 L326.6,18.9 Z" id="Shape"></path>
            </g>
            <g id="Group" transform="translate(193.000000, 7.000000)" fill="#FFFFFF">
                <path d="M3,69.8 C6.1,71.8 11.6,74 16.8,74 C24.4,74 28,70.2 28,65.4 C28,60.4 25,57.8 17.3,54.9 C6.9,51.1 2.1,45.4 2.1,38.5 C2.1,29.3 9.6,21.7 22,21.7 C27.8,21.7 32.9,23.2 36.2,25.2 L33.6,32.8 C31.3,31.5 27.2,29.3 21.7,29.3 C15.6,29.3 12.2,33 12.2,37.3 C12.2,42.1 15.5,44.2 23.1,47.2 C33,50.9 38.2,55.8 38.2,64.5 C38.2,74.6 30.3,81.9 16.7,81.9 C10.4,81.9 4.6,80.2 0.5,77.9 L3,69.8 Z" id="Shape"></path>
                <path d="M90.3,78.3 C87.6,79.7 81.5,81.8 73.8,81.8 C56.4,81.8 45.1,70 45.1,52.4 C45.1,34.7 57.2,21.7 76,21.7 C82.1,21.7 87.7,23.2 90.5,24.7 L88.1,32.8 C85.6,31.4 81.7,30.1 76,30.1 C62.8,30.1 55.7,40 55.7,51.9 C55.7,65.2 64.3,73.4 75.8,73.4 C81.6,73.4 85.6,71.9 88.5,70.5 L90.3,78.3 Z" id="Shape"></path>
                <path d="M111.9,6.7 C111.9,10.3 109.3,13.1 105.2,13.1 C101.4,13.1 98.8,10.2 98.9,6.7 C98.8,3.1 101.5,0.2 105.3,0.2 C109.1,0.2 111.8,3 111.9,6.7 Z M100.2,80.5 L100.2,23 L110.6,23 L110.6,80.5 L100.2,80.5 Z" id="Shape"></path>
                <path d="M131.4,53.6 C131.6,67.8 140.6,73.6 151.2,73.6 C158.7,73.6 163.3,72.3 167.1,70.6 L168.9,78.1 C165.3,79.8 158.9,81.8 149.7,81.8 C132,81.8 121.4,70 121.4,52.8 C121.4,35.3 131.6,21.7 148.5,21.7 C167.2,21.7 172.2,38.1 172.2,48.7 C172.2,50.8 172,52.5 171.7,53.6 L131.4,53.6 Z M162.2,46.1 C162.3,39.6 159.5,29.2 147.7,29.2 C137.1,29.2 132.5,38.8 131.6,46.1 L162.2,46.1 Z" id="Shape"></path>
                <path d="M182.9,38.5 C182.9,32.5 182.7,27.7 182.4,23 L191.7,23 L192.2,32.4 L192.6,32.4 C195.5,27 202.1,21.7 211.6,21.7 C219.5,21.7 231.8,26.5 231.8,46.1 L231.8,80.5 L221.4,80.5 L221.4,47.4 C221.4,38 217.9,30.3 208.1,30.3 C201.2,30.3 196,35.2 194.1,41 C193.6,42.3 193.3,44.1 193.3,45.9 L193.3,80.5 L182.9,80.5 L182.9,38.5 Z" id="Shape"></path>
                <path d="M287.6,78.3 C284.9,79.7 278.8,81.8 271.1,81.8 C253.7,81.8 242.4,70 242.4,52.4 C242.4,34.7 254.5,21.7 273.3,21.7 C279.4,21.7 285,23.2 287.8,24.7 L285.4,32.8 C282.9,31.4 279,30.1 273.3,30.1 C260.1,30.1 253,40 253,51.9 C253,65.2 261.6,73.4 273.1,73.4 C278.9,73.4 282.9,71.9 285.8,70.5 L287.6,78.3 Z" id="Shape"></path>
                <path d="M302.7,53.6 C302.9,67.8 311.9,73.6 322.5,73.6 C330,73.6 334.6,72.3 338.4,70.6 L340.2,78.1 C336.6,79.8 330.2,81.8 321,81.8 C303.3,81.8 292.7,70 292.7,52.8 C292.7,35.3 302.9,21.7 319.8,21.7 C338.5,21.7 343.5,38.1 343.5,48.7 C343.5,50.8 343.3,52.5 343,53.6 L302.7,53.6 Z M333.4,46.1 C333.5,39.6 330.7,29.2 318.9,29.2 C308.3,29.2 303.7,38.8 302.8,46.1 L333.4,46.1 Z" id="Shape"></path>
            </g>
        </g>
    </g>
</svg>
